# xmcd CD database file
#
# Track frame offsets:
#	150
#	14968
#	29715
#	45123
#	58454
#	75173
#	90856
#	106757
#
# Disc length: 1641 seconds
#
# Revision: 0
# Processed by: cddbd v1.5.2PL0 Copyright (c) Steve Scherf et al.
# Submitted via: jetAudio 7
#
DISCID=57066708
DTITLE=Floyd Cramer - Hits From The Country Hall Of Fame
DYEAR=1900
DGENRE=Country
TTITLE0=Jimmie Rodgers Medley_01
TTITLE1=Hank Williams Medley_01
TTITLE2=Roy Acuff Medley_01
TTITLE3=Fred Rose Medley_01
TTITLE4=Jimmie Rodgers Medley_02
TTITLE5=Hank Williams Medley_02
TTITLE6=Roy Acuff Medley_02
TTITLE7=Fred Rose Medley_02
EXTD=
EXTT0=
EXTT1=
EXTT2=
EXTT3=
EXTT4=
EXTT5=
EXTT6=
EXTT7=
PLAYORDER=
